<svg width="20" height="25" viewBox="0 0 20 25" fill="none" xmlns="http://www.w3.org/2000/svg">
<path d="M17.7778 5.95238H15.5556C15.5556 2.61905 13.1111 0 10 0C6.88889 0 4.44444 2.61905 4.44444 5.95238H2.22222C1 5.95238 0 7.02381 0 8.33333V22.619C0 23.9286 1 25 2.22222 25H17.7778C19 25 20 23.9286 20 22.619V8.33333C20 7.02381 19 5.95238 17.7778 5.95238ZM10 2.38095C11.8889 2.38095 13.3333 3.92857 13.3333 5.95238H6.66667C6.66667 3.92857 8.11111 2.38095 10 2.38095ZM17.7778 22.619H2.22222V8.33333H17.7778V22.619ZM10 13.0952C8.11111 13.0952 6.66667 11.5476 6.66667 9.52381H4.44444C4.44444 12.8571 6.88889 15.4762 10 15.4762C13.1111 15.4762 15.5556 12.8571 15.5556 9.52381H13.3333C13.3333 11.5476 11.8889 13.0952 10 13.0952Z" fill="#272343"/>
</svg>
